<svg width="544" height="139" viewBox="0 0 544 139" fill="none" xmlns="http://www.w3.org/2000/svg">
<path d="M1.18167 139L1 1.16818C1 1.16818 17.8495 -2.71511 32.0194 26.8383C46.1894 56.3917 51.5031 63.1496 66.0364 64.8643C80.5696 66.579 85.8834 61.8384 97.8279 52.6093C109.772 43.3801 130.8 47.4147 139.611 58.3586C148.422 69.3024 149.466 75.9595 156.461 83.8774C163.455 91.7952 168.541 97.5445 178.669 91.9465C188.797 86.3485 189.842 74.0935 196.972 55.3326C204.102 36.5717 210.461 23.7619 222.133 22.1985C233.805 20.6351 239.8 29.4103 249.383 42.9262C258.965 56.4925 266.232 65.1165 279.63 68.9998C292.982 72.8831 306.471 66.8312 314.283 60.7793C322.049 54.7274 337.627 40.455 354.658 50.9954C371.689 61.5358 368.692 79.2376 381.772 87.1555C394.897 95.0734 404.889 95.0734 410.566 88.0128C416.288 80.9523 417.832 76.2116 422.238 62.2418C426.643 48.2721 436.362 35.8657 451.032 39.3455C465.701 42.8254 468.562 55.9378 471.424 69.3024C474.285 82.7174 477.509 97.5445 488.954 104.302C500.399 111.06 511.39 113.38 523.471 108.488C535.552 103.596 543 99.5618 543 99.5618V138.95" fill="url(#paint0_linear_4_1702)"/>
<path d="M1.18167 139L1 1.16818C1 1.16818 17.8495 -2.71511 32.0194 26.8383C46.1894 56.3917 51.5031 63.1496 66.0364 64.8643C80.5696 66.579 85.8834 61.8384 97.8279 52.6093C109.772 43.3801 130.8 47.4147 139.611 58.3586C148.422 69.3024 149.466 75.9595 156.461 83.8774C163.455 91.7953 168.541 97.5445 178.669 91.9465C188.797 86.3485 189.842 74.0935 196.972 55.3326C204.102 36.5717 210.461 23.7619 222.133 22.1985C233.805 20.6351 239.8 29.4103 249.383 42.9262C258.965 56.4926 266.232 65.1165 279.63 68.9998C292.982 72.8831 306.471 66.8312 314.283 60.7793C322.049 54.7274 337.627 40.455 354.658 50.9954C371.689 61.5358 368.692 79.2376 381.772 87.1555C394.897 95.0734 404.889 95.0734 410.566 88.0128C416.288 80.9523 417.832 76.2116 422.238 62.2418C426.643 48.2721 436.362 35.8657 451.032 39.3455C465.701 42.8254 468.562 55.9378 471.424 69.3024C474.285 82.7174 477.509 97.5445 488.954 104.302C500.399 111.06 511.39 113.38 523.471 108.488C535.552 103.596 543 99.5618 543 99.5618V138.95" stroke="#894BA9" stroke-miterlimit="10"/>
<path d="M1 138.943V99.0383C1 99.0383 27.9864 113.482 45.2959 107.088C62.6054 100.694 67.2848 92.8727 71.6008 70.6084C75.9169 48.344 92.6357 32.4164 104.312 39.267C115.988 46.1175 119.122 61.7597 127.891 78.4295C136.659 95.0992 145.427 94.8138 155.559 91.9023C165.69 88.9908 170.142 78.9432 174.049 71.1222C177.956 63.3011 187.088 46.1746 205.215 47.3735C223.343 48.5723 229.158 65.0137 244.332 67.6969C259.506 70.38 270.228 72.321 281.722 57.1926C293.217 42.0643 311.889 13.8627 328.063 24.424C344.236 34.9283 349.098 67.2402 354.913 78.0298C360.774 88.8195 372.222 102.521 383.716 88.3057C395.211 74.0907 406.296 43.2631 433.737 48.9149C461.178 54.5666 453.227 69.5237 475.216 65.4704C497.205 61.4172 501.112 51.598 510.471 31.3317C519.83 11.0654 529.143 0.504101 543 1.01789V139" fill="url(#paint1_linear_4_1702)"/>
<path d="M1 138.943V99.0383C1 99.0383 27.9864 113.482 45.2959 107.088C62.6054 100.694 67.2848 92.8727 71.6008 70.6084C75.9169 48.344 92.6357 32.4164 104.312 39.267C115.988 46.1175 119.122 61.7597 127.891 78.4295C136.659 95.0992 145.427 94.8137 155.559 91.9023C165.69 88.9908 170.142 78.9432 174.049 71.1222C177.956 63.3011 187.088 46.1746 205.215 47.3735C223.343 48.5723 229.158 65.0137 244.332 67.6969C259.506 70.38 270.228 72.321 281.722 57.1926C293.217 42.0643 311.889 13.8627 328.063 24.424C344.236 34.9283 349.098 67.2402 354.913 78.0298C360.774 88.8195 372.222 102.521 383.716 88.3057C395.211 74.0907 406.296 43.2631 433.737 48.9149C461.178 54.5666 453.227 69.5237 475.216 65.4704C497.205 61.4172 501.112 51.598 510.471 31.3317C519.83 11.0654 529.143 0.504101 543 1.01789V139" stroke="#E03A45" stroke-miterlimit="10"/>
<defs>
<linearGradient id="paint0_linear_4_1702" x1="272" y1="18.3173" x2="272" y2="139" gradientUnits="userSpaceOnUse">
<stop stop-color="#7B4397"/>
<stop offset="1" stop-color="#7B4397" stop-opacity="0"/>
</linearGradient>
<linearGradient id="paint1_linear_4_1702" x1="272.16" y1="10.7127" x2="271.91" y2="139" gradientUnits="userSpaceOnUse">
<stop stop-color="#DC2430"/>
<stop offset="1" stop-color="#DC2430" stop-opacity="0"/>
</linearGradient>
</defs>
</svg>
